<?xml version="1.0" standalone="no"?>
<!DOCTYPE svg PUBLIC "-//W3C//DTD SVG 20010904//EN"
 "http://www.w3.org/TR/2001/REC-SVG-20010904/DTD/svg10.dtd">
<svg version="1.0" xmlns="http://www.w3.org/2000/svg"
 width="246.000000pt" height="205.000000pt" viewBox="0 0 246.000000 205.000000"
 preserveAspectRatio="xMidYMid meet">

<g transform="translate(0.000000,205.000000) scale(0.100000,-0.100000)"
fill="#fff" stroke="none">
<path d="M900 1844 c-454 -63 -603 -88 -630 -102 -22 -12 -44 -38 -59 -66 -43
-84 -29 -255 29 -336 l21 -29 -43 -12 c-79 -23 -85 -46 -20 -77 53 -25 82 -86
82 -174 0 -65 -1 -68 -27 -74 -46 -11 -133 -52 -133 -63 0 -5 13 -12 30 -16
l29 -6 -26 -41 c-36 -53 -44 -184 -18 -273 25 -89 58 -115 195 -160 63 -20
251 -81 417 -136 l301 -99 613 150 c337 83 615 152 617 155 8 7 -58 43 -104
55 -57 16 -68 37 -60 113 9 85 29 122 82 146 30 15 44 27 44 41 0 11 -6 20
-12 20 -7 0 -20 5 -28 10 -12 8 -11 12 7 32 34 38 52 83 62 154 12 81 5 144
-20 198 -11 22 -19 41 -19 42 0 1 25 8 55 15 80 18 72 33 -36 71 l-64 23 -3
55 c-4 65 13 132 38 155 10 9 34 24 52 33 63 32 50 47 -74 86 -407 125 -650
196 -675 195 -15 -1 -296 -39 -623 -85z m-175 -298 l400 -132 -2 -133 c-1 -73
-4 -135 -7 -138 -10 -11 -801 219 -822 239 -31 28 -47 96 -42 179 3 63 7 74
31 95 16 13 31 24 35 23 4 0 187 -60 407 -133z m1434 36 c-6 -15 -12 -65 -13
-111 -1 -74 -3 -85 -21 -92 -24 -10 -940 -239 -956 -239 -12 0 -9 253 3 266 9
9 980 212 990 207 4 -2 2 -16 -3 -31z m27 -353 c16 -18 19 -37 19 -118 0 -104
-18 -153 -60 -168 -11 -4 -195 -57 -410 -118 l-390 -111 -8 86 c-4 47 -6 109
-5 138 l3 53 385 129 c212 70 399 129 416 129 20 1 38 -7 50 -20z m-1357 -144
c259 -54 458 -100 463 -107 4 -7 8 -70 8 -139 l0 -127 -457 115 c-252 63 -474
118 -493 123 l-36 10 0 87 c-1 49 -6 101 -13 117 l-12 29 43 -7 c24 -4 247
-49 497 -101z m-167 -385 l398 -131 -1 -117 c-2 -183 50 -178 -413 -46 -284
80 -405 119 -421 134 -27 25 -45 89 -45 159 0 79 27 131 69 131 8 0 194 -59
413 -130z m1432 53 c-4 -10 -10 -63 -13 -117 l-6 -100 -488 -122 c-290 -72
-490 -118 -493 -112 -4 5 -3 66 1 135 7 115 9 125 29 132 36 14 206 44 212 38
3 -3 30 3 60 13 30 11 157 40 282 66 125 26 263 55 307 65 108 23 119 23 109
2z"/>
</g>
</svg>
